# xmcd
#
# Track frame offsets: 
#        150
#        24145
#        48160
#        71935
#        92580
#        122145
#        149050
#        177942
#
# Disc length: 2706 seconds
#
# Revision: 1
# Processed by: cddbd v1.5.2PL0 Copyright (c) Steve Scherf et al.
# Submitted via: ExactAudioCopyFreeDBPlugin 1.0
#
DISCID=6d0a9008
DTITLE=Karyn White - Do Unto Me - Walkin' The Dog [CDM)
DYEAR=1992
DGENRE=R&B
TTITLE0=Do Unto Me (After Hours Remix)
TTITLE1=Do Unto Me (Intimate Remix)
TTITLE2=Do Unto Me (Orchestral Mix)
TTITLE3=Do Unto Me (For Singles Only)
TTITLE4=Walkin' The Dog (12" Edit)
TTITLE5=Walkin' The Dog (Club Mix)
TTITLE6=Walkin' The Dog (Dub Edit)
TTITLE7=Walkin' The Dog (Dub Mix)
EXTD=from the album 'Ritual Of Love'
EXTT0=
EXTT1=
EXTT2=
EXTT3=
EXTT4=
EXTT5=
EXTT6=
EXTT7=
PLAYORDER=
